# xmcd
# 
# Track frame offsets:
#     150
#     4127
#     14522
#     42237
#     48037
#     52975
#     60170
#     88142
#     95225
#     101250
#     105560
#     132972
#     137905
#     142750
#     149360
#     176187
#     182922
#     189235
#     194355
#     222357
#     227222
#     233572
#     238847
#     246865
#     274110
# 
# Disc length: 3769
# 
# Revision: 2
# Processed by: cddbd v1.5.2PL0 Copyright (c) Steve Scherf et al.
# Submitted via: fre:ac v1.1beta1pre4
# 
DISCID=610eb719
DTITLE=ビデオ・サントラ - 菜々子解体診書 オリジナルサウンドトラック音楽的超療法II
DYEAR=2000
DGENRE=Anime
TTITLE0=国際新兵器ショー
TTITLE1=グリフォーネ始動
TTITLE2=連続官能スペクトラム小説『花と注射器』
TTITLE3=グリフォーネ攻撃
TTITLE4=グリフォーネ強襲
TTITLE5=葬送曲
TTITLE6=連続官能スペクトラム小説『花と注射器』
TTITLE7=オープニングテーマ 3
TTITLE8=アーユーセクシャル?
TTITLE9=アーユーボイン?
TTITLE10=連続官能スペクトラム小説『花と注射器』
TTITLE11=バビロン ワン
TTITLE12=ミグのテーマ
TTITLE13=オープングテーマ 4
TTITLE14=連続官能スペクトラム小説『花と注射器』
TTITLE15=剣の舞でてんてこ舞
TTITLE16=デビットの陰謀
TTITLE17=生餐
TTITLE18=連続官能スペクトラム小説『花と注射器』
TTITLE19=実験
TTITLE20=回想
TTITLE21=グリーン復活
TTITLE22=グリーン猛攻
TTITLE23=連続官能スペクトラム小説『花と注射器』
TTITLE24=平穏
EXTD=
EXTT0=
EXTT1=
EXTT2=
EXTT3=
EXTT4=
EXTT5=
EXTT6=
EXTT7=
EXTT8=
EXTT9=
EXTT10=
EXTT11=
EXTT12=
EXTT13=
EXTT14=
EXTT15=
EXTT16=
EXTT17=
EXTT18=
EXTT19=
EXTT20=
EXTT21=
EXTT22=
EXTT23=
EXTT24=
PLAYORDER=
